{"title":"Riddick 2013 NEW SOURCE CAM XViD - JUSTiCE","uid":8907356,"size":1497048443,"categoryP":"video","categoryS":"movies","magnet":"?xt=urn:btih:45f3201346ef5fa2ff4e615e1eb8c880acac6a36&amp;dn=Riddick+2013+NEW+SOURCE+CAM+XViD+-+JUSTiCE&amp;tr=udp%3A%2F%2Ftracker.openbittorrent.com%3A80&amp;tr=udp%3A%2F%2Fopen.demonii.com%3A1337&amp;tr=udp%3A%2F%2Ftracker.coppersurfer.tk%3A6969&amp;tr=udp%3A%2F%2Fexodus.desync.com%3A6969","seeders":2,"leechers":0,"uploader":"xxxlavalxxx","files":-1,"time":1378940164,"description":" &lt;a href=&quot;\nhttp://www.imdb.com/title/tt1411250/&quot; rel=&quot;nofollow&quot; target=&quot;_NEW&quot;&gt;\nhttp://www.imdb.com/title/tt1411250/&lt;/a&gt;\n\n\n\nLeft for dead on a sun-scorched planet, Riddick finds himself up against an alien race of predators. Activating an emergency beacon alerts two ships: one carrying a new breed of mercenary, the other captained by a man from Riddick's past. \n\n\n\nDirector:\n David Twohy \n\nWriters:\n David Twohy, Jim Wheat (based on characters created by)\n\nStars:\n Vin Diesel, Karl Urban, Katee Sackhoff \n\nGenres:\n  Action |  Sci-Fi |  Thriller \n\nCountry:\n USA | UK \n\nLanguage:\n English \n\n\n\nRiddick 2013 NEW SOURCE CAM XViD - JUSTiCE\n\n\n\n SOURCE : VIDEO - blacktops/high THXS   AUDIO - blacktops/high THXS\n\n\n Video and audio both cleaned and given justice.\n Check sample and see.....\n\n\n Alot better than the last source and seems complete,more level and less cropped.\n Still needed some TLC and video also had logo in bottom right corner.\n Audio is like blacktops other releases ...the right channel is over powering and of course as the normal cam audio issues...but still decent for what\n it is.\n\n\n WORKDONE -\n\n Right don't have access to the blacktop video so had to use highs release ...first thing was to reblur their blur as they left a small amount whic caused a thin\n white line going up the screen.\n Also then i changed the rgb colours,sat,brightness,contrast levels....aswell as using a HQ smoother and some sharpness.\n\n Audio stripped and dropped in AA ....remastered both channels before remuxing to out rip.\n\n Overall v -6/7 a 6 m 6 ...of course IMHO.\n\n\n\n\n Video\n ID                                       : 0\n Format                                   : MPEG-4 Visual\n Format profile                           : Advanced Simple@L5\n Format settings, BVOP                    : 2\n Format settings, QPel                    : No\n Format settings, GMC                     : No warppoints\n Format settings, Matrix                  : Default (MPEG)\n Muxing mode                              : Packed bitstream\n Codec ID                                 : XVID\n Codec ID/Hint                            : XviD\n Duration                                 : 1h 54mn\n Bit rate                                 : 1 584 Kbps\n Width                                    : 720 pixels\n Height                                   : 320 pixels\n Display aspect ratio                     : 2.25:1\n Frame rate                               : 29.970 fps\n Color space                              : YUV\n Chroma subsampling                       : 4:2:0\n Bit depth                                : 8 bits\n Scan type                                : Progressive\n Compression mode                         : Lossy\n Bits/(Pixel*Frame)                       : 0.229\n Stream size                              : 1.27 GiB (92%)\n Writing library                          : XviD 64\n\n Audio\n ID                                       : 1\n Format                                   : MPEG Audio\n Format version                           : Version 1\n Format profile                           : Layer 3\n Mode                                     : Joint stereo\n Mode extension                           : MS Stereo\n Codec ID                                 : 55\n Codec ID/Hint                            : MP3\n Duration                                 : 1h 54mn\n Bit rate mode                            : Constant\n Bit rate                                 : 128 Kbps\n Channel(s)                               : 2 channels\n Sampling rate                            : 44.1 KHz\n Compression mode                         : Lossy\n Stream size                              : 105 MiB (7%)\n Alignment                                : Split accross interleaves\n Interleave, duration                     : 33 ms (1.00 video frame)\n Interleave, preload duration             : 500 ms\n\n\n\n &lt;a href=&quot;\nhttp://bayimg.com/OAPhbAAEH&quot; rel=&quot;nofollow&quot; target=&quot;_NEW&quot;&gt;\nhttp://bayimg.com/OAPhbAAEH&lt;/a&gt; &lt;a href=&quot;\nhttp://bayimg.com/OaphDAAEh&quot; rel=&quot;nofollow&quot; target=&quot;_NEW&quot;&gt;\nhttp://bayimg.com/OaphDAAEh&lt;/a&gt;","torrent":{"xt":"urn:btih:45f3201346ef5fa2ff4e615e1eb8c880acac6a36","amp;dn":"Riddick+2013+NEW+SOURCE+CAM+XViD+-+JUSTiCE","amp;tr":["udp%3A%2F%2Ftracker.openbittorrent.com%3A80","udp%3A%2F%2Fopen.demonii.com%3A1337","udp%3A%2F%2Ftracker.coppersurfer.tk%3A6969","udp%3A%2F%2Fexodus.desync.com%3A6969"],"infoHash":"45f3201346ef5fa2ff4e615e1eb8c880acac6a36","infoHashBuffer":{"type":"Buffer","data":[69,243,32,19,70,239,95,162,255,78,97,94,30,184,200,128,172,172,106,54]},"announce":[],"urlList":[]}}